<svg xmlns="http://www.w3.org/2000/svg" xmlns:xlink="http://www.w3.org/1999/xlink" xmlns:inkscape="http://www.inkscape.org/namespaces/inkscape" version="1.1" width="160" height="160" viewBox="0 0 160 160">
<defs>
<clipPath id="clip_1">
<path transform="matrix(1,0,0,-1,0,160)" d="M0 160H160V0H0Z"/>
</clipPath>
</defs>
<g inkscape:groupmode="layer" inkscape:label="Capa 1">
<g clip-path="url(#clip_1)">
<path transform="matrix(1,0,0,-1,54.1772,59.651704)" d="M0 0C.891 2.75-3.481 5.703-2.48 8.172-2.26 8.716-1.82 9.145-1.82 9.145-1.166 9.783 .011 10.3 .94 9.943 1.584 9.695 1.732 9.173 2.167 9.261 2.541 9.338 2.783 9.789 2.86 10.119 2.937 10.465 2.898 10.944 2.7 11.125 1.919 11.823-3.146 9.58-3.739 6.324-4.3 3.245-.533 1.012-1.661-1.171-2.002-1.831-3.047-2.997-4.262-3.443-4.3-3.459-4.355-3.481-4.427-3.503-4.372-3.487-4.311-3.47-4.251-3.448-2.948-2.986-.539-1.683 0 0M91.821-59.161 91.282-59.7C91.167-59.821 90.985-59.018 91.134-58.985 91.486-58.914 91.981-59.002 91.821-59.161M90.27-60.728C90.072-60.728 89.913-60.569 89.913-60.371 89.913-60.173 90.072-60.013 90.27-60.013 90.468-60.013 90.628-60.173 90.628-60.371 90.628-60.569 90.468-60.728 90.27-60.728M88.967-62.417 88.456-62.604C88.318-62.653 88.208-61.949 88.357-61.949 88.456-61.949 88.736-61.944 88.835-61.938 88.984-61.927 89.105-62.367 88.967-62.417M87.147-63.951 86.784-63.275 87.587-62.846 87.95-63.522ZM86.536-64.825 85.992-65.496C85.877-65.639 85.255-65.59 85.167-65.43 85.079-65.265 85.53-64.737 85.739-64.512 85.865-64.369 86.652-64.682 86.536-64.825M84.073-67.245 83.655-67.404C83.506-67.465 83.138-66.981 83.297-66.948L83.919-66.816C84.023-66.794 84.172-67.206 84.073-67.245M82.373-68.68C82.154-68.68 81.983-68.504 81.983-68.29 81.983-68.075 82.154-67.905 82.373-67.905 82.588-67.905 82.758-68.075 82.758-68.29 82.758-68.504 82.588-68.68 82.373-68.68M81.263-69.72 80.416-70.27C80.218-70.396 79.794-69.863 79.998-69.742L81.076-69.087C81.246-68.983 81.444-69.604 81.263-69.72M40.266-43.719 40.893-43.587C40.997-43.565 41.145-43.978 41.047-44.016L40.629-44.176C40.48-44.236 40.106-43.752 40.266-43.719M39.754-48.069 39.05-47.712 39.628-46.568 40.332-46.92ZM39.061-50.236C38.83-50.236 38.643-50.049 38.643-49.823 38.643-49.592 38.83-49.405 39.061-49.405 39.292-49.405 39.479-49.592 39.479-49.823 39.479-50.049 39.292-50.236 39.061-50.236M38.935-51.919C38.935-52.018 38.506-52.172 38.5-52.067L38.456-51.303C38.451-51.204 38.957-51.297 38.957-51.402ZM38.407-54.558C38.407-54.663 37.978-54.811 37.972-54.707L37.928-53.948C37.923-53.843 38.429-53.937 38.429-54.041ZM37.763-56.763C37.494-56.763 37.274-56.549 37.274-56.274 37.274-56.005 37.494-55.785 37.763-55.785 38.038-55.785 38.258-56.005 38.258-56.274 38.258-56.549 38.038-56.763 37.763-56.763M37.351-58.952C37.192-58.952 37.06-58.82 37.06-58.655 37.06-58.496 37.192-58.364 37.351-58.364 37.516-58.364 37.648-58.496 37.648-58.655 37.648-58.82 37.516-58.952 37.351-58.952M66.552-10.08C53.524-18.252 46.81-28.547 40.871-42.68 43.109-31.329 55.196-13.776 66.552-10.08M47.536-25.192C47.75-25.192 47.921-25.363 47.921-25.577 47.921-25.786 47.75-25.957 47.536-25.957 47.327-25.957 47.156-25.786 47.156-25.577 47.156-25.363 47.327-25.192 47.536-25.192M48.762-23.548C48.982-23.548 49.158-23.724 49.158-23.938 49.158-24.158 48.982-24.334 48.762-24.334 48.548-24.334 48.372-24.158 48.372-23.938 48.372-23.724 48.548-23.548 48.762-23.548M58.892-12.522C59.579-13.941 57.544-14.65 56.527-15.42 53.673-17.576 52.402-20.875 49.433-22.871 51.787-18.78 55.031-15.348 58.892-12.522M65.375-13.198 64.913-12.61 65.87-11.856 66.332-12.439ZM64.165-13.737 63.599-14.007C63.467-14.062 63.429-13.396 63.555-13.325 63.637-13.275 63.973-13.253 64.149-13.242 64.292-13.231 64.297-13.677 64.165-13.737M62.554-14.831C62.351-14.831 62.18-14.667 62.18-14.463 62.18-14.26 62.351-14.095 62.554-14.095 62.758-14.095 62.923-14.26 62.923-14.463 62.923-14.667 62.758-14.831 62.554-14.831M60.75-16.509 59.755-17.086C59.541-17.213 59.222-16.47 59.431-16.344 59.684-16.19 60.167-15.92 60.475-15.766 60.651-15.678 60.926-16.404 60.75-16.509M58.353-18.329C58.122-18.329 57.935-18.142 57.935-17.911 57.935-17.68 58.122-17.493 58.353-17.493 58.584-17.493 58.771-17.68 58.771-17.911 58.771-18.142 58.584-18.329 58.353-18.329M57.148-19.357C56.989-19.357 56.857-19.225 56.857-19.06 56.857-18.901 56.989-18.769 57.148-18.769 57.313-18.769 57.445-18.901 57.445-19.06 57.445-19.225 57.313-19.357 57.148-19.357M55.691-21.205C55.658-21.315 55.438-21.084 55.114-20.776 55.603-20.699 55.862-20.633 55.829-20.749ZM54.547-22.602C54.294-22.602 54.091-22.393 54.091-22.14 54.091-21.887 54.294-21.684 54.547-21.684 54.8-21.684 55.009-21.887 55.009-22.14 55.009-22.393 54.8-22.602 54.547-22.602M53.453-24.202C53.453-24.307 53.024-24.455 53.018-24.351L52.974-23.592C52.969-23.487 53.475-23.581 53.475-23.685ZM18.263-8.331 2.585-49.977-7.891-27.117C-.572-18.846 5.384-9.684 10.889 .083 11.043 .044 11.142-.027 11.208-.083 11.482-.319 11.565-.764 11.438-1.215 12.142-1.204 12.841-1.193 13.545-1.188 15.233-1.364 17.064-1.952 17.873-3.14 18.846-4.559 18.961-6.462 18.263-8.331M-25.055-40.876-24.967-12.907-15.288-33.908C-18.197-36.829-21.348-39.127-25.055-40.876M58.474-37.637C62.252-37.494 65.26-38.055 68.68-37.032L75.538-34.981C71.056-38.709 64.402-39.65 58.474-37.637M58.347-37.78 57.143-37.747C56.928-37.736 56.609-37.027 56.818-37.021 57.181-37.005 57.726-37.021 57.94-37.049 58.155-37.071 58.556-37.785 58.347-37.78M92.668-57.698C92.432-57.363 92.993-56.741 92.817-56.527 92.619-56.279 91.486-56.637 91.161-57.022 83.699-65.892 73.212-75.714 61.839-78.546 52.023-80.993 43.378-74.905 41.519-65.177 40.073-57.649 41.596-50.434 44.253-43.158 47.767-33.513 52.666-24.675 60.42-17.829 65.601-13.253 77.309-7.012 82.483-12.379 86.41-16.448 82.703-23.9 79.833-27.947 69.874-41.992 56.989-30.845 55.383-38.192 68.284-42.905 82.038-36.312 87.405-23.977 89.231-19.781 90.754-15.183 88.56-10.773 86.723-7.083 82.647-4.935 78.589-4.715 60.085-4.715 46.826-20.76 39.694-36.394 36.163-44.132 34.376-52.089 34.772-60.508 32.809-60.552 31.175-60.547 30.032-59.48 29.13-58.639 28.69-56.791 28.69-55.191V-6.121C28.69 .858 32.215-2.568 31.373 .555L11.296 .671 16.437 10.119C19.896 10.306 23.08 10.108 26.44 10.515 23.179 11.757 20.325 10.515 16.701 10.779L29.322 34.541C30.922 37.554 33.073 39.952 35.564 42.113 39.331 45.374 45 45.281 46.095 42.96 46.43 42.251 46.342 41.013 46.491 39.842L47.244 45.077C46.914 45.473 46.221 46.177 45.11 46.584 44.011 46.997 43.065 46.903 42.647 46.859 41.943 46.782 41.371 46.59 40.992 46.452 40.414 46.254 39.958 46.034 39.666 45.886 39.21 45.66 38.902 45.479 38.803 45.418 38.533 45.253 38.302 45.094 38.132 44.973 28.184 36.994 20.589 21.794 14.265 10.828L8.881 10.394C6.467 10.196 4.575 8.87 3.976 6.55 5.692 10.278 10.058 9.838 13.765 10.042L3.041-9.261C-.231-15.15-3.712-20.611-8.155-26.22L-16.536-7.451C-17.647-5.549-17.174-3.234-15.678-2.145-14.26-1.105-12.104-1.303-11.229-2.178-11.004-2.403-10.762-2.777-10.168-3.223-9.954-3.382-9.503-3.712-8.909-3.926-7.506-4.427-6.066-3.998-4.674-3.58-4.608-3.564-4.542-3.542-4.476-3.52-4.537-3.536-4.603-3.553-4.68-3.569-5.862-3.838-6.88-3.344-7.226-3.179-9.184-2.227-9.717 .363-9.75 .533L-35.498 .55C-37.027-2.376-32.182 .407-29.229-4.372L-29.02-42.201C-34.079-44.214-40.442-44.225-42.839-38.572-42.608-41.646-40.249-43.912-37.246-44.269-34.552-44.594-32.094-44.176-29.135-43.246L-29.322-67.267C-34.81-65.254-45.699-66.321-46.584-72.2-46.799-73.602-46.106-75.34-44.654-76.44-40.591-79.512-34.342-80.182-29.506-78.016-26.893-76.845-25.267-74.183-25.238-71.319L-24.934-41.519C-21.519-39.545-18.423-37.301-15.183-34.563-10.234-44.489-6.396-54.74-.869-65.606H.253L20.193-16.069C20.765-29.828 20.358-43.054 20.116-56.505 20.1-57.528 19.572-58.903 19.022-59.409 18.351-60.03 17.141-60.404 16.173-60.448L11.114-60.679C11.021-61.614 11.004-62.554 11.147-63.412 19.275-62.884 27.029-62.84 35.118-63.242 36.037-69.621 38.693-75.521 43.78-79.382 48.971-83.325 55.669-83.825 62.004-82.12 71.639-79.536 79.717-73.652 86.767-66.635 89.512-63.901 92.36-61.328 93.367-57.869 93.103-57.891 92.795-57.88 92.668-57.698"/>
</g>
</g>
</svg>
